<svg xmlns="http://www.w3.org/2000/svg" width="1600" height="430" viewBox="0 0 1600 430">
<rect width="1600" height="430" fill="#F5EFE3"/>
<circle cx="1515" cy="35" r="190" fill="#FF3B30"/>
<circle cx="1510" cy="450" r="180" fill="#151515"/>

<g font-family="Arial,Helvetica,sans-serif" fill="#151515">
  <text x="58" y="70" font-size="21" font-weight="700" letter-spacing="5">DATA • ML • GENAI</text>
  <text x="58" y="185" font-size="78" font-weight="800">Building useful</text>
  <text x="58" y="270" font-size="78" font-weight="800" fill="#FF3B30">AI, not hype.</text>
  <text x="58" y="330" font-size="21" fill="#4A4A4A">Data analysis · machine learning · practical AI systems</text>
  <text x="58" y="382" font-size="14" font-weight="700" letter-spacing="2" fill="#4A4A4A">RAJDEEP SENAPATI</text>
</g>

<g transform="translate(0 0)" fill="none">
  <circle cx="1300" cy="220" r="174" stroke="#151515" stroke-opacity=".12" stroke-width="2"/>
  <circle cx="1300" cy="220" r="132" stroke="#151515" stroke-opacity=".14" stroke-width="2"/>
  <circle cx="1300" cy="220" r="92" stroke="#FF3B30" stroke-opacity=".55" stroke-width="2" stroke-dasharray="5 8">
    <animateTransform attributeName="transform" type="rotate" from="0 1300 220" to="360 1300 220" dur="18s" repeatCount="indefinite"/>
  </circle>
  <circle cx="1300" cy="220" r="54" stroke="#151515" stroke-opacity=".16" stroke-width="2"/>
</g>

<g font-family="Arial,Helvetica,sans-serif" font-size="14" font-weight="700" fill="#151515">
  <rect x="1015" y="72" width="130" height="42" fill="#F5EFE3" stroke="#151515" stroke-opacity=".20"/>
  <text x="1037" y="98">ANALYTICS</text>
  <rect x="1015" y="316" width="105" height="42" fill="#F5EFE3" stroke="#151515" stroke-opacity=".20"/>
  <text x="1040" y="342">GENAI</text>
  <rect x="1470" y="199" width="76" height="42" fill="#F5EFE3" stroke="#151515" stroke-opacity=".20"/>
  <text x="1492" y="225">ML</text>
</g>

<g stroke="#FF3B30" stroke-width="2" fill="#FF3B30">
  <path d="M1145 93H1210"/>
  <path d="M1120 337H1190"/>
  <path d="M1388 220H1470"/>
  <circle cx="1210" cy="93" r="7">
    <animate attributeName="r" values="5;9;5" dur="2.2s" repeatCount="indefinite"/>
  </circle>
  <circle cx="1190" cy="337" r="7">
    <animate attributeName="r" values="5;9;5" dur="2.7s" repeatCount="indefinite"/>
  </circle>
  <circle cx="1388" cy="220" r="7">
    <animate attributeName="r" values="5;9;5" dur="2.5s" repeatCount="indefinite"/>
  </circle>
  <circle cx="1300" cy="128" r="8">
    <animateMotion dur="7s" repeatCount="indefinite" path="M0 0 C95 -60 170 25 165 92 C160 160 70 185 0 160 C-70 185 -160 160 -165 92 C-170 25 -95 -60 0 0"/>
  </circle>
</g>

<path d="M930 220H1015" stroke="#151515" stroke-opacity=".12"/>
<path d="M920 375H1480" stroke="#151515" stroke-opacity=".10"/>
<rect x="58" y="395" width="54" height="3" fill="#FF3B30">
  <animate attributeName="width" values="18;68;18" dur="3s" repeatCount="indefinite"/>
</rect>
</svg>